<?xml version="1.0" encoding="UTF-8"?>
<svg id="BOXES" xmlns="http://www.w3.org/2000/svg" viewBox="0 0 800 800">
  <defs>
    <style>
      .cls-1 {
        fill: none;
        stroke: #fff;
        stroke-miterlimit: 10;
        stroke-width: 3px;
      }
    </style>
  </defs>
  <path class="cls-1" d="M482.71,461.72v51.9c.07,2.13-1.53,4.27-3.58,4.81l-60.01,16.08c-5.22,1.31-9.26,6.66-9.1,12.05v47.69c0,6.92,5.62,12.54,12.54,12.54h20.05c2.77,0,5.01-2.26,5.01-5.03v-32.12c-.06-2.19,1.59-4.34,3.72-4.86l20.05-5.37c2.11-.61,4.64.43,5.67,2.4,1.36,2.42,4.42,3.25,6.82,1.89.33-.16.84-.56,1.08-.81l8.67-8.68c.51-.58,1.57-1.21,2.31-1.37l15.09-4.03c5.32-1.26,9.45-6.66,9.29-12.1v-161.35c0-10.37-8.4-18.79-18.8-18.79s-18.79,8.42-18.79,18.79v37.06c.06,2.16-1.58,4.34-3.72,4.83l-145.94,39.12c-.78.25-2.27.45-3.09.43-6.92.09-12.59-5.47-12.69-12.38v-20.6c0-2.78,2.24-5.02,5.03-5.02h22.55c2.77,0,5.01-2.26,5.01-5.03.09-1.49-.88-3.34-2.18-4.13l-28.11-19.23c-1.34-.76-2.35-2.66-2.29-4.2,0-2.78,2.24-5.02,5.03-5.02h22.55c2.77,0,5.01-2.23,5.01-5.01.09-1.5-.88-3.37-2.18-4.14l-28.11-19.22c-1.34-.79-2.35-2.67-2.29-4.23,0-2.78,2.24-4.99,5.03-4.99h22.55c2.77,0,5.01-2.27,5.01-5.04.09-1.49-.88-3.36-2.18-4.13l-28.11-19.2c-1.34-.79-2.35-2.66-2.29-4.23,0-2.78,2.24-5.01,5.03-5.01h22.55c2.77,0,5.01-2.27,5.01-5.02.09-1.52-.88-3.37-2.18-4.16l-28.11-19.2c-1.34-.79-2.35-2.66-2.29-4.23,0-2.78,2.24-4.99,5.03-4.99h22.55c2.77,0,5.01-2.26,5.01-5.03.09-1.49-.88-3.34-2.18-4.13l-28.11-19.23c-1.34-.79-2.35-2.66-2.29-4.2,0-2.8,2.24-5.04,5.03-5.04h22.55c2.77,0,5.01-2.23,5.01-5.01.09-1.5-.88-3.34-2.18-4.11l-40.32-27.6c-.68-.5-1.98-.9-2.82-.86h-12.32c-6.93,0-12.54,5.6-12.54,12.54v287.5c0,6.93,5.61,12.54,12.54,12.54.88.02,2.42-.18,3.24-.43l180.94-48.47c.33-.11.95-.21,1.31-.19,2.75,0,5,2.24,5,5.02"/>
</svg>