<?xml version="1.0" encoding="UTF-8"?>
<svg id="BOXES" xmlns="http://www.w3.org/2000/svg" viewBox="0 0 800 800">
  <defs>
    <style>
      .cls-1, .cls-2 {
        stroke-miterlimit: 10;
      }

      .cls-1, .cls-2, .cls-3 {
        fill: none;
        stroke: #fff;
      }

      .cls-2, .cls-3 {
        stroke-width: 3px;
      }
    </style>
  </defs>
  <path class="cls-3" d="M438.89,527.74v-41.97h-23.03c-1.82-.05-3.7,1.3-4.26,3.01l-4.68,12.84c-.84,2.35-3.45,3.56-5.79,2.71l-6.83-2.5c-21.23-6.37-49.98-27.7-62.23-46.15v-168.81c8.21-39.52,46.26-81.15,84.88-92.9l6.83-2.5c2.36-.84,4.95.36,5.8,2.74l4.67,12.82c.56,1.73,2.45,3.05,4.25,2.98h29.45v317.07l-43.75,57.03-92.14,24.69v-12.54c-.57-19.74,14.33-39.2,33.57-43.76l68.31-18.3,4.94-6.45Z"/>
  <polygon class="cls-1" points="381.9 372.15 467.95 387.32 467.95 295.32 397.64 282.93 381.9 372.15"/>
  <g>
    <polyline class="cls-2" points="381.91 372.15 467.95 387.32 467.95 295.32 397.64 282.93"/>
    <polygon class="cls-3" points="381.91 372.15 467.95 387.32 467.95 295.32 397.64 282.93 381.91 372.15"/>
    <path class="cls-1" d="M397.64,282.93l-35.93-51.32c-14.66,16.5-25.66,36.12-29.65,55.25v120.19l49.84-34.92"/>
    <path class="cls-2" d="M397.64,282.93l-35.93-51.32c-14.66,16.5-25.66,36.12-29.65,55.25v120.19l49.84-34.92"/>
    <path class="cls-3" d="M397.64,282.93l-35.93-51.32c-14.66,16.5-25.66,36.13-29.65,55.25v120.19l49.84-34.92,15.74-89.2Z"/>
  </g>
</svg>