<?xml version="1.0" encoding="UTF-8"?>
<svg id="BOXES" xmlns="http://www.w3.org/2000/svg" viewBox="0 0 800 800">
  <defs>
    <style>
      .cls-1 {
        fill: none;
        stroke: #fff;
        stroke-linejoin: round;
        stroke-width: 3px;
      }
    </style>
  </defs>
  <path class="cls-1" d="M116.13,293.2l615.13-.08c3.62,0,6.51,2.97,6.51,6.58v75.92c0,3.58-2.9,6.52-6.51,6.52h-31.59c-7.21,0-13.1,5.86-13.1,13.1l.03,27.35c.1,2.02-.77,5.16-1.91,6.83-7.71,11.45-7.6,29.84.24,41.22,4.94,7.83,2.94,18.47-4.54,23.91l-14.76,11.01c-.91.77-2.72,1.36-3.9,1.33-3.61,0-6.53-2.97-6.53-6.58l-.03-112.9c0-14.48,11.71-26.19,26.19-26.19h7.81c7.93-.03,14.36-6.46,14.36-14.39s-6.42-14.43-14.36-14.43l-520.93.05c-10.85,0-19.64,8.77-19.64,19.65v47.09c0,10.85-8.8,19.65-19.62,19.65s-19.62-8.8-19.62-19.65v-17h-27.51c-10.82,0-19.62-8.79-19.62-19.61s8.76-19.67,19.62-19.67h21.19c3.62,0,6.56-2.91,6.56-6.52v-36.67c0-3.61,2.93-6.52,6.54-6.52"/>
</svg>