<?xml version="1.0" encoding="UTF-8"?>
<svg id="BOXES" xmlns="http://www.w3.org/2000/svg" viewBox="0 0 800 800">
  <defs>
    <style>
      .cls-1 {
        stroke-dasharray: 25.07 8.56 3.05 8.56;
        stroke-dashoffset: 33.62px;
        stroke-miterlimit: 500;
      }

      .cls-1, .cls-2, .cls-3 {
        fill: none;
        stroke: #fff;
        stroke-width: 3px;
      }

      .cls-3 {
        stroke-linejoin: round;
      }
    </style>
  </defs>
  <path class="cls-3" d="M321.49,189.43v-44.49c.04-9.98-8-18.28-17.97-18.53-2.98.04-5.99,2.38-6.74,5.29-1.34,5.54-6.93,11.12-12.47,12.47-9.81,2.92-20.14-2.65-23.07-12.47-1.18-3.91-5.3-6.14-9.22-4.99-2.23.54-4.46,2.78-4.99,4.99-1.99,7.61-9.9,13.49-17.77,13.25-7.85.24-15.75-5.63-17.77-13.25h.04c-1.16-3.91-5.3-6.14-9.23-4.99-2.21.54-4.44,2.78-4.99,4.99-1.99,7.61-9.88,13.49-17.77,13.25-7.84.24-15.74-5.63-17.76-13.25-.8-3.04-3.96-5.39-7.11-5.29h-3.79c-2.19-.13-5.89.7-7.84,1.73h-.01s-29.69,13.89-29.69,13.89h-.03c-2.49,1-4.39,3.99-4.27,6.7-.08,3.49,2.65,6.76,6.13,7.29h-.01l4.88.84h0c.16.04.48.11.66.16,3.95,1.08,6.29,5.14,5.21,9.09h0s-16.83,61.94-16.83,61.94c-1.07,3.93,1.26,8.02,5.21,9.09.07.01.19.04.21.05v.03s34.32,8.19,34.32,8.19h-.04c3.88.87,6.38,4.75,5.58,8.64h0s-10.8,54.02-10.8,54.02v329.94c0,4.09,3.32,7.41,7.41,7.41h27.81c10.24,0,18.52-8.3,18.52-18.53.31-6.1-3.83-13.27-9.26-16.07v.03c-2.17-1.12-3.83-3.99-3.69-6.42l.25-1.93,14.6-54.58v.03c1.85-7.85,9.82-13.96,17.9-13.73h64.23c8.08-.23,16.03,5.87,17.89,13.73v-.03l12.2,45.54,2.41,9.05.25,1.93c.11,2.44-1.54,5.3-3.71,6.42l-2.33,1.58c-4.09,2.93-7.23,9.43-6.94,14.46-.15,2.82,1.1,7.28,2.7,9.63,2.84,5.23,9.9,9.21,15.83,8.9h51.29c1.61.09,4.05-.67,5.31-1.66h-.03l6.09-4.28,1.36,1.95v.04c1.47,2.31,4.87,4.09,7.6,3.95h137.84c4.12,0,7.41-3.32,7.41-7.41v-151.95c-.12-2.19,1.3-4.92,3.17-6.09h-.01l18.2-12.75h-.03c1.02-.78,2.96-1.42,4.26-1.34h.59c2.37.13,5.19-1.46,6.32-3.53h.01c.8-1.24,2.6-3.4,3.67-4.43,13.05-13.35,34.46-13.58,47.8-.51h-.03c1.42,1.57,4.38,2.77,6.49,2.68h10.28c1.87.08,4.58-.92,5.94-2.19h-.03s44.76-37.53,44.76-37.53h-.01c3.92-3.31,4.44-9.15,1.14-13.06-.25-.33-.82-.9-1.14-1.16v.03s-63.21-53.06-63.21-53.06l.03.03c-3.91-3.29-9.75-2.78-13.05,1.14-1.3,1.38-2.29,4.07-2.18,5.97v17.57c.12,2.19-1.27,4.9-3.14,6.06h-.04l-113.79,79.71-22.19,15.55h0c-3.39,2.68-9.66,4.05-13.85,3.05h-.01s-35.73-6.32-35.73-6.32l-.03.04c-2.11-.51-5.25.17-6.93,1.53l-3.28,2.29-2.3-3.31v.03c-1.14-1.83-3.84-3.56-5.98-3.83h-.04s-36.62-6.46-36.62-6.46c-4.27-.48-9.69-3.95-11.95-7.61v-.03s-14.63-20.86-14.63-20.86l-59.97-85.65c-1.16-1.83-3.89-3.25-6.09-3.16h-19.2c-3.13-.08-6.3,2.26-7.12,5.3-2.01,7.63-9.9,13.49-17.76,13.25-10.24,0-18.55-8.3-18.55-18.55v-166.81h55.64c4.07,0,7.4,3.31,7.4,7.41v29.65c0,4.09,3.31,7.4,7.43,7.4h3.69c20.47,0,37.07-16.58,37.07-37.05Z"/>
  <path class="cls-2" d="M470.31,479.1h-.01c-3.37,2.68-9.66,4.07-13.85,3.06h-.01s-35.73-6.32-35.73-6.32v.03c-2.11-.5-5.26.2-6.94,1.53l-3.29,2.3-2.29-3.31v.03c-1.14-1.83-3.87-3.56-5.98-3.8l-.04-.05-36.62-6.44c-4.27-.47-9.69-3.95-11.95-7.61v-.03s-14.63-20.86-14.63-20.86l-27.54,155.8,2.4,9.06.27,1.93c.12,2.44-1.54,5.29-3.72,6.42l-2.29,1.57-4.24,24.09v.03c2.78,5.22,9.88,9.21,15.82,8.9h51.26c1.61.08,4.04-.67,5.3-1.66l6.1-4.27,1.35,1.95v.03c1.46,2.31,4.87,4.09,7.59,3.95h69.09l32.14-181.83-22.17,15.52ZM376.23,643.76h-.01.01Z"/>
  <line class="cls-1" x1="375.33" y1="673.6" x2="420.69" y2="416.38"/>
</svg>