<?xml version="1.0" encoding="UTF-8"?>
<svg id="BOXES" xmlns="http://www.w3.org/2000/svg" viewBox="0 0 800 800">
  <defs>
    <style>
      .cls-1 {
        fill: none;
        stroke: #fff;
        stroke-linejoin: round;
        stroke-width: 3px;
      }
    </style>
  </defs>
  <path class="cls-1" d="M68.84,570.85v17.71l.43,3,.51.64.24.19,1.3.78,1,.08,1.08-.22.34-.11.08-.03s9.85-5.92,9.85-5.92l6.74-3.99,3.02-1.81,18.78-5.05,12.88-3.44,4.24-1.13,1.19-.3.39-.11s2.41-2.07,2.41-2.07l.38-.82.08-.25c0-.06,0-.07,0-.07v-17.93l-1.83-1.82-1.76-1.79-16.14,4.35-11.07,2.94-4.82,1.27-1.79.47-2.47-.88-.97-1.49v-78.26c0-.06,1.8-10.74,1.8-10.74l2.31-9.5,2.81-8.76,3.45-8.48,3.85-7.76,4.59-7.61,4.91-6.8,5.79-6.78,6-5.86,7.17-5.95,7.09-4.84,9.39-5.23,8.18-3.55,9.39-3.03,2.41-.55,131.22-35.06,90.4-24.12,29.78-7.96,8.36-2.23,2.86-.78c.07,0,8.53,2.7,8.53,2.7l5.78,1.81,1.9.64.73.22,4.14.58,1.41-.14.39-.06.14-.05,79.57-21.32,54.68-14.64,18.01-4.82,5.05-1.36,1.33-.36.35-.08.07-.03,1.48-.47,2.15,1.54.71,2.15v5.01l.53,1.91,1.17.93,1.03.33.36.06h.12l51.67-25.45,35.47-17.46,11.67-5.76,4.41-2.17,1.79-1.18,1.08-1.58.57-1.35.1-.38.05-.14v-17.57l-.56-1.94-1.29-1.16-1-.47-1.43-.34-.57-.02-.12-.03c-.06,0-19.79,5.56-19.79,5.56l-13.54,3.82-6.14,1.73-3.75,2.1-.41.68-.14.61v3.75s-.72,2.55-.72,2.55l-1.48,1.44-1.23.57-.25.06-.11.03-.18.06-55.23,14.13-37.92,9.68-12.47,3.2-4.71,1.19-3.18.57-2.65-.3-1.23-.74-3.04-1.68-3.18-1.77-2.15-.79-1.79.41-1.02.69-.26.25-11.32,11.31-7.62,7.63-3.44,3.41-2.23,1.65-2.24.28-1.8-.34-7.72-6.06-5.17-4.08-2.33-1.84-1.49-1.02-1.82-.14-1.42.24-173.03,46.79-118.4,32.03-39.02,10.54-10.91,2.97-2.88.78-.99.27-9.54,3.97-8.81,4.35-8.59,4.98-7.86,5.34-7.55,6.01-6.81,6.23-6.59,7.05-5.77,7.21-5.61,8.21-4.72,8.18-4.59,9.55-3.54,9.17-3.5,11.87-2.07,10.02-1.3,11.26-.1,2.04v96.41Z"/>
</svg>