<?xml version="1.0" encoding="UTF-8"?>
<svg id="BOXES" xmlns="http://www.w3.org/2000/svg" viewBox="0 0 800 800">
  <defs>
    <style>
      .cls-1 {
        fill: none;
        stroke: #fff;
        stroke-linecap: round;
        stroke-linejoin: round;
        stroke-width: 3px;
      }
    </style>
  </defs>
  <path class="cls-1" d="M99.82,508.6l-7.61.68c-26.58,8.98-20.55,48.16,7.61,47.55h33.78v33.07l1.39,6.19,3.45,5.54,5.49,3.43,6.21,1.37h501.33l6.21-1.37,5.53-3.43,3.43-5.54,1.39-6.19v-33.07h33.78c32.78.29,32.78-48.49,0-48.22H99.82Z"/>
  <path class="cls-1" d="M726.71,394.49c0,12.34-10,22.33-22.32,22.33H97.21c-12.32,0-22.32-9.99-22.32-22.33v-76.54c0-12.32,10-22.32,22.32-22.32h33.48v-54.21h-33.48c-13.22,0-23.92-10.71-23.92-23.92s10.71-23.92,23.92-23.92h589.99c13.22,0,23.92,10.71,23.92,23.92s-10.71,23.92-23.92,23.92h-33.48v54.21h50.68c12.32,0,22.32,10,22.32,22.32v76.54Z"/>
</svg>